<svg width="41" height="40" viewBox="0 0 41 40" fill="none" xmlns="http://www.w3.org/2000/svg">
<path d="M4.55556 40C3.30278 40 2.23032 39.5648 1.33819 38.6944C0.446065 37.8241 0 36.7778 0 35.5556V4.44444C0 3.22222 0.446065 2.17593 1.33819 1.30556C2.23032 0.435185 3.30278 0 4.55556 0H36.4444C37.6972 0 38.7697 0.435185 39.6618 1.30556C40.5539 2.17593 41 3.22222 41 4.44444V35.5556C41 36.7778 40.5539 37.8241 39.6618 38.6944C38.7697 39.5648 37.6972 40 36.4444 40H4.55556ZM4.55556 35.5556H36.4444V4.44444H4.55556V35.5556ZM6.83333 31.1111H34.1667L25.625 20L18.7917 28.8889L13.6667 22.2222L6.83333 31.1111Z" fill="black" fill-opacity="0.2"/>
</svg>
