<svg width="56" height="46" viewBox="0 0 56 46" fill="none" xmlns="http://www.w3.org/2000/svg">
<path d="M26.6426 16.9375L33.7051 9.875L31.9238 8.09375L26.6426 13.375L24.0176 10.75L22.2363 12.5312L26.6426 16.9375ZM27.9551 25C25.0592 24.2708 22.6686 22.6094 20.7832 20.0156C18.8978 17.4219 17.9551 14.5417 17.9551 11.375V3.75L27.9551 0L37.9551 3.75V11.375C37.9551 14.5417 37.0124 17.4219 35.127 20.0156C33.2415 22.6094 30.8509 24.2708 27.9551 25ZM27.9551 22.375C30.1217 21.6875 31.9134 20.3125 33.3301 18.25C34.7467 16.1875 35.4551 13.8958 35.4551 11.375V5.46875L27.9551 2.65625L20.4551 5.46875V11.375C20.4551 13.8958 21.1634 16.1875 22.5801 18.25C23.9967 20.3125 25.7884 21.6875 27.9551 22.375Z" fill="black"/>
<path d="M3.10133 40.14C2.62133 40.14 2.18466 40.0333 1.79133 39.82C1.40466 39.6 1.09466 39.2833 0.861328 38.87C0.634661 38.45 0.521328 37.94 0.521328 37.34V35.66C0.521328 34.76 0.774661 34.07 1.28133 33.59C1.78799 33.1033 2.47466 32.86 3.34133 32.86C4.20133 32.86 4.86466 33.09 5.33133 33.55C5.80466 34.0033 6.04133 34.62 6.04133 35.4V35.44H4.74133V35.36C4.74133 35.1133 4.68799 34.89 4.58133 34.69C4.48133 34.49 4.32799 34.3333 4.12133 34.22C3.91466 34.1 3.65466 34.04 3.34133 34.04C2.87466 34.04 2.50799 34.1833 2.24133 34.47C1.97466 34.7567 1.84133 35.1467 1.84133 35.64V37.36C1.84133 37.8467 1.97466 38.24 2.24133 38.54C2.50799 38.8333 2.88133 38.98 3.36133 38.98C3.84133 38.98 4.19133 38.8533 4.41133 38.6C4.63133 38.3467 4.74133 38.0267 4.74133 37.64V37.54H3.08133V36.42H6.04133V40H4.82133V39.33H4.64133C4.59466 39.4433 4.51799 39.5633 4.41133 39.69C4.31133 39.8167 4.15799 39.9233 3.95133 40.01C3.74466 40.0967 3.46133 40.14 3.10133 40.14ZM10.0024 40.14C9.42909 40.14 8.93576 40.0367 8.52242 39.83C8.11576 39.6167 7.80242 39.3167 7.58242 38.93C7.36909 38.5367 7.26242 38.0733 7.26242 37.54V33H8.58242V37.58C8.58242 38.0067 8.70242 38.3433 8.94242 38.59C9.18909 38.8367 9.54242 38.96 10.0024 38.96C10.4624 38.96 10.8124 38.8367 11.0524 38.59C11.2991 38.3433 11.4224 38.0067 11.4224 37.58V33H12.7424V37.54C12.7424 38.0733 12.6324 38.5367 12.4124 38.93C12.1991 39.3167 11.8858 39.6167 11.4724 39.83C11.0658 40.0367 10.5758 40.14 10.0024 40.14ZM13.4435 40L15.2835 33H17.5835L19.4235 40H18.0635L17.6835 38.46H15.1835L14.8035 40H13.4435ZM15.4935 37.24H17.3735L16.5235 33.83H16.3435L15.4935 37.24ZM20.2614 40V33H23.3014C23.7414 33 24.1247 33.0767 24.4514 33.23C24.7781 33.3833 25.0314 33.6 25.2114 33.88C25.3914 34.16 25.4814 34.49 25.4814 34.87V34.99C25.4814 35.41 25.3814 35.75 25.1814 36.01C24.9814 36.27 24.7347 36.46 24.4414 36.58V36.76C24.7081 36.7733 24.9147 36.8667 25.0614 37.04C25.2081 37.2067 25.2814 37.43 25.2814 37.71V40H23.9614V37.9C23.9614 37.74 23.9181 37.61 23.8314 37.51C23.7514 37.41 23.6147 37.36 23.4214 37.36H21.5814V40H20.2614ZM21.5814 36.16H23.1614C23.4747 36.16 23.7181 36.0767 23.8914 35.91C24.0714 35.7367 24.1614 35.51 24.1614 35.23V35.13C24.1614 34.85 24.0747 34.6267 23.9014 34.46C23.7281 34.2867 23.4814 34.2 23.1614 34.2H21.5814V36.16ZM26.0998 40L27.9398 33H30.2398L32.0798 40H30.7198L30.3398 38.46H27.8398L27.4598 40H26.0998ZM28.1498 37.24H30.0298L29.1798 33.83H28.9998L28.1498 37.24ZM32.9177 40V33H35.4277L36.8177 39.1H36.9977V33H38.2977V40H35.7877L34.3977 33.9H34.2177V40H32.9177ZM41.2369 40V34.2H39.1969V33H44.5969V34.2H42.5569V40H41.2369ZM45.4958 40V33H49.9958V34.2H46.8158V35.87H49.7158V37.07H46.8158V38.8H50.0558V40H45.4958ZM51.0329 40V33H55.5329V34.2H52.3529V35.87H55.2529V37.07H52.3529V38.8H55.5929V40H51.0329Z" fill="black"/>
</svg>
