<svg width="35" height="46" viewBox="0 0 35 46" fill="none" xmlns="http://www.w3.org/2000/svg">
<path d="M19.8154 11.25C18.7738 11.25 17.8883 10.8854 17.1592 10.1562C16.43 9.42708 16.0654 8.54167 16.0654 7.5C16.0654 6.45833 16.43 5.57292 17.1592 4.84375C17.8883 4.11458 18.7738 3.75 19.8154 3.75C20.8571 3.75 21.7425 4.11458 22.4717 4.84375C23.2008 5.57292 23.5654 6.45833 23.5654 7.5C23.5654 8.54167 23.2008 9.42708 22.4717 10.1562C21.7425 10.8854 20.8571 11.25 19.8154 11.25ZM11.0654 15C10.3779 15 9.78939 14.7552 9.2998 14.2656C8.81022 13.776 8.56543 13.1875 8.56543 12.5V2.5C8.56543 1.8125 8.81022 1.22396 9.2998 0.734375C9.78939 0.244792 10.3779 0 11.0654 0H28.5654C29.2529 0 29.8415 0.244792 30.3311 0.734375C30.8206 1.22396 31.0654 1.8125 31.0654 2.5V12.5C31.0654 13.1875 30.8206 13.776 30.3311 14.2656C29.8415 14.7552 29.2529 15 28.5654 15H11.0654ZM13.5654 12.5H26.0654C26.0654 11.8125 26.3102 11.224 26.7998 10.7344C27.2894 10.2448 27.8779 10 28.5654 10V5C27.8779 5 27.2894 4.75521 26.7998 4.26562C26.3102 3.77604 26.0654 3.1875 26.0654 2.5H13.5654C13.5654 3.1875 13.3206 3.77604 12.8311 4.26562C12.3415 4.75521 11.7529 5 11.0654 5V10C11.7529 10 12.3415 10.2448 12.8311 10.7344C13.3206 11.224 13.5654 11.8125 13.5654 12.5ZM27.3154 20H6.06543C5.37793 20 4.78939 19.7552 4.2998 19.2656C3.81022 18.776 3.56543 18.1875 3.56543 17.5V3.75H6.06543V17.5H27.3154V20ZM11.0654 12.5V2.5V12.5Z" fill="black"/>
<path d="M0.680626 35V28H3.56063C4.00063 28 4.38729 28.09 4.72063 28.27C5.06063 28.4433 5.32396 28.69 5.51063 29.01C5.70396 29.33 5.80063 29.71 5.80063 30.15V30.29C5.80063 30.7233 5.70063 31.1033 5.50063 31.43C5.30729 31.75 5.04063 32 4.70063 32.18C4.36729 32.3533 3.98729 32.44 3.56063 32.44H2.00063V35H0.680626ZM2.00063 31.24H3.43063C3.74396 31.24 3.99729 31.1533 4.19063 30.98C4.38396 30.8067 4.48063 30.57 4.48063 30.27V30.17C4.48063 29.87 4.38396 29.6333 4.19063 29.46C3.99729 29.2867 3.74396 29.2 3.43063 29.2H2.00063V31.24ZM5.69867 35L7.53867 28H9.83867L11.6787 35H10.3187L9.93867 33.46H7.43867L7.05867 35H5.69867ZM7.74867 32.24H9.62867L8.77867 28.83H8.59867L7.74867 32.24ZM13.5939 35V32.59L11.2139 28H12.6839L14.1639 31H14.3439L15.8239 28H17.2939L14.9139 32.59V35H13.5939ZM18.0341 35V28H20.9141C21.3541 28 21.7408 28.09 22.0741 28.27C22.4141 28.4433 22.6775 28.69 22.8641 29.01C23.0575 29.33 23.1541 29.71 23.1541 30.15V30.29C23.1541 30.7233 23.0541 31.1033 22.8541 31.43C22.6608 31.75 22.3941 32 22.0541 32.18C21.7208 32.3533 21.3408 32.44 20.9141 32.44H19.3541V35H18.0341ZM19.3541 31.24H20.7841C21.0975 31.24 21.3508 31.1533 21.5441 30.98C21.7375 30.8067 21.8341 30.57 21.8341 30.27V30.17C21.8341 29.87 21.7375 29.6333 21.5441 29.46C21.3508 29.2867 21.0975 29.2 20.7841 29.2H19.3541V31.24ZM23.0522 35L24.8922 28H27.1922L29.0322 35H27.6722L27.2922 33.46H24.7922L24.4122 35H23.0522ZM25.1022 32.24H26.9822L26.1322 28.83H25.9522L25.1022 32.24ZM29.8701 35V28H31.1901V33.8H34.3901V35H29.8701Z" fill="black"/>
</svg>
