<svg width="24" height="24" viewBox="0 0 24 24" fill="none" xmlns="http://www.w3.org/2000/svg">
<g clip-path="url(#clip0_1_931)">
<path d="M12 4.35418C13.1004 3.10663 14.8581 2.67037 16.4141 3.25858C17.9702 3.84678 18.9998 5.33666 18.9998 7.00018C18.9998 8.66369 17.9702 10.1536 16.4141 10.7418C14.8581 11.33 13.1004 10.8937 12 9.64618M15 21.0002H3V20.0002C3 16.6887 5.68851 14.0002 9 14.0002C12.3115 14.0002 15 16.6887 15 20.0002V21.0002L12 4.35418M12 4.35418H18V3.35418C18.0003 1.21043 16.8568 -0.770608 15.0004 -1.84261C13.1439 -2.91461 10.8565 -2.9147 9 -1.84282M13 7.00018C13 9.20784 11.2077 11.0002 9 11.0002C6.79234 11.0002 5 9.20784 5 7.00018C5 4.79252 6.79234 3.00018 9 3.00018C11.2077 3.00018 13 4.79252 13 7.00018L12 4.35418" stroke="#1E1B4B" stroke-width="2" stroke-linecap="round" stroke-linejoin="round"/>
</g>
<defs>
<clipPath id="clip0_1_931">
<rect width="24" height="24" fill="white"/>
</clipPath>
</defs>
</svg>
