<svg width="57" height="46" viewBox="0 0 57 46" fill="none" xmlns="http://www.w3.org/2000/svg">
<path d="M20.7051 26.25C20.0176 26.25 19.429 26.0052 18.9395 25.5156C18.4499 25.026 18.2051 24.4375 18.2051 23.75V11.25C18.2051 10.5625 18.4499 9.97396 18.9395 9.48438C19.429 8.99479 20.0176 8.75 20.7051 8.75H21.9551V6.25C21.9551 4.52083 22.5645 3.04688 23.7832 1.82812C25.002 0.609375 26.4759 0 28.2051 0C29.9342 0 31.4082 0.609375 32.627 1.82812C33.8457 3.04688 34.4551 4.52083 34.4551 6.25V8.75H35.7051C36.3926 8.75 36.9811 8.99479 37.4707 9.48438C37.9603 9.97396 38.2051 10.5625 38.2051 11.25V23.75C38.2051 24.4375 37.9603 25.026 37.4707 25.5156C36.9811 26.0052 36.3926 26.25 35.7051 26.25H20.7051ZM20.7051 23.75H35.7051V11.25H20.7051V23.75ZM28.2051 20C28.8926 20 29.4811 19.7552 29.9707 19.2656C30.4603 18.776 30.7051 18.1875 30.7051 17.5C30.7051 16.8125 30.4603 16.224 29.9707 15.7344C29.4811 15.2448 28.8926 15 28.2051 15C27.5176 15 26.929 15.2448 26.4395 15.7344C25.9499 16.224 25.7051 16.8125 25.7051 17.5C25.7051 18.1875 25.9499 18.776 26.4395 19.2656C26.929 19.7552 27.5176 20 28.2051 20ZM24.4551 8.75H31.9551V6.25C31.9551 5.20833 31.5905 4.32292 30.8613 3.59375C30.1322 2.86458 29.2467 2.5 28.2051 2.5C27.1634 2.5 26.278 2.86458 25.5488 3.59375C24.8197 4.32292 24.4551 5.20833 24.4551 6.25V8.75ZM20.7051 23.75V11.25V23.75Z" fill="black"/>
<path d="M3.10352 41.39C2.56352 41.39 2.08685 41.2933 1.67352 41.1C1.26018 40.9067 0.936849 40.63 0.703516 40.27C0.470182 39.91 0.353515 39.4767 0.353515 38.97V38.69H1.65352V38.97C1.65352 39.39 1.78352 39.7067 2.04352 39.92C2.30352 40.1267 2.65685 40.23 3.10352 40.23C3.55685 40.23 3.89352 40.14 4.11352 39.96C4.34018 39.78 4.45352 39.55 4.45352 39.27C4.45352 39.0767 4.39685 38.92 4.28352 38.8C4.17685 38.68 4.01685 38.5833 3.80352 38.51C3.59685 38.43 3.34352 38.3567 3.04352 38.29L2.81352 38.24C2.33352 38.1333 1.92018 38 1.57352 37.84C1.23352 37.6733 0.970182 37.4567 0.783516 37.19C0.603516 36.9233 0.513515 36.5767 0.513515 36.15C0.513515 35.7233 0.613515 35.36 0.813516 35.06C1.02018 34.7533 1.30685 34.52 1.67352 34.36C2.04685 34.1933 2.48352 34.11 2.98352 34.11C3.48352 34.11 3.92685 34.1967 4.31352 34.37C4.70685 34.5367 5.01352 34.79 5.23352 35.13C5.46018 35.4633 5.57352 35.8833 5.57352 36.39V36.69H4.27352V36.39C4.27352 36.1233 4.22018 35.91 4.11352 35.75C4.01352 35.5833 3.86685 35.4633 3.67352 35.39C3.48018 35.31 3.25018 35.27 2.98352 35.27C2.58352 35.27 2.28685 35.3467 2.09352 35.5C1.90685 35.6467 1.81352 35.85 1.81352 36.11C1.81352 36.2833 1.85685 36.43 1.94352 36.55C2.03685 36.67 2.17352 36.77 2.35352 36.85C2.53352 36.93 2.76352 37 3.04352 37.06L3.27352 37.11C3.77352 37.2167 4.20685 37.3533 4.57352 37.52C4.94685 37.6867 5.23685 37.9067 5.44352 38.18C5.65018 38.4533 5.75352 38.8033 5.75352 39.23C5.75352 39.6567 5.64352 40.0333 5.42352 40.36C5.21018 40.68 4.90352 40.9333 4.50352 41.12C4.11018 41.3 3.64352 41.39 3.10352 41.39ZM9.16797 41.39C8.62797 41.39 8.1513 41.2933 7.73797 41.1C7.32464 40.9067 7.0013 40.63 6.76797 40.27C6.53464 39.91 6.41797 39.4767 6.41797 38.97V38.69H7.71797V38.97C7.71797 39.39 7.84797 39.7067 8.10797 39.92C8.36797 40.1267 8.7213 40.23 9.16797 40.23C9.6213 40.23 9.95797 40.14 10.178 39.96C10.4046 39.78 10.518 39.55 10.518 39.27C10.518 39.0767 10.4613 38.92 10.348 38.8C10.2413 38.68 10.0813 38.5833 9.86797 38.51C9.6613 38.43 9.40797 38.3567 9.10797 38.29L8.87797 38.24C8.39797 38.1333 7.98464 38 7.63797 37.84C7.29797 37.6733 7.03464 37.4567 6.84797 37.19C6.66797 36.9233 6.57797 36.5767 6.57797 36.15C6.57797 35.7233 6.67797 35.36 6.87797 35.06C7.08464 34.7533 7.3713 34.52 7.73797 34.36C8.1113 34.1933 8.54797 34.11 9.04797 34.11C9.54797 34.11 9.9913 34.1967 10.378 34.37C10.7713 34.5367 11.078 34.79 11.298 35.13C11.5246 35.4633 11.638 35.8833 11.638 36.39V36.69H10.338V36.39C10.338 36.1233 10.2846 35.91 10.178 35.75C10.078 35.5833 9.9313 35.4633 9.73797 35.39C9.54464 35.31 9.31464 35.27 9.04797 35.27C8.64797 35.27 8.3513 35.3467 8.15797 35.5C7.9713 35.6467 7.87797 35.85 7.87797 36.11C7.87797 36.2833 7.9213 36.43 8.00797 36.55C8.1013 36.67 8.23797 36.77 8.41797 36.85C8.59797 36.93 8.82797 37 9.10797 37.06L9.33797 37.11C9.83797 37.2167 10.2713 37.3533 10.638 37.52C11.0113 37.6867 11.3013 37.9067 11.508 38.18C11.7146 38.4533 11.818 38.8033 11.818 39.23C11.818 39.6567 11.708 40.0333 11.488 40.36C11.2746 40.68 10.968 40.9333 10.568 41.12C10.1746 41.3 9.70797 41.39 9.16797 41.39ZM12.8024 41.25V34.25H14.1224V40.05H17.3224V41.25H12.8024ZM22.8887 41.39C22.3487 41.39 21.872 41.2933 21.4587 41.1C21.0453 40.9067 20.722 40.63 20.4887 40.27C20.2553 39.91 20.1387 39.4767 20.1387 38.97V38.69H21.4387V38.97C21.4387 39.39 21.5687 39.7067 21.8287 39.92C22.0887 40.1267 22.442 40.23 22.8887 40.23C23.342 40.23 23.6787 40.14 23.8987 39.96C24.1253 39.78 24.2387 39.55 24.2387 39.27C24.2387 39.0767 24.182 38.92 24.0687 38.8C23.962 38.68 23.802 38.5833 23.5887 38.51C23.382 38.43 23.1287 38.3567 22.8287 38.29L22.5987 38.24C22.1187 38.1333 21.7053 38 21.3587 37.84C21.0187 37.6733 20.7553 37.4567 20.5687 37.19C20.3887 36.9233 20.2987 36.5767 20.2987 36.15C20.2987 35.7233 20.3987 35.36 20.5987 35.06C20.8053 34.7533 21.092 34.52 21.4587 34.36C21.832 34.1933 22.2687 34.11 22.7687 34.11C23.2687 34.11 23.712 34.1967 24.0987 34.37C24.492 34.5367 24.7987 34.79 25.0187 35.13C25.2453 35.4633 25.3587 35.8833 25.3587 36.39V36.69H24.0587V36.39C24.0587 36.1233 24.0053 35.91 23.8987 35.75C23.7987 35.5833 23.652 35.4633 23.4587 35.39C23.2653 35.31 23.0353 35.27 22.7687 35.27C22.3687 35.27 22.072 35.3467 21.8787 35.5C21.692 35.6467 21.5987 35.85 21.5987 36.11C21.5987 36.2833 21.642 36.43 21.7287 36.55C21.822 36.67 21.9587 36.77 22.1387 36.85C22.3187 36.93 22.5487 37 22.8287 37.06L23.0587 37.11C23.5587 37.2167 23.992 37.3533 24.3587 37.52C24.732 37.6867 25.022 37.9067 25.2287 38.18C25.4353 38.4533 25.5387 38.8033 25.5387 39.23C25.5387 39.6567 25.4287 40.0333 25.2087 40.36C24.9953 40.68 24.6887 40.9333 24.2887 41.12C23.8953 41.3 23.4287 41.39 22.8887 41.39ZM26.5231 41.25V34.25H31.0231V35.45H27.8431V37.12H30.7431V38.32H27.8431V40.05H31.0831V41.25H26.5231ZM34.7202 41.39C33.8536 41.39 33.1669 41.15 32.6602 40.67C32.1536 40.1833 31.9002 39.49 31.9002 38.59V36.91C31.9002 36.01 32.1536 35.32 32.6602 34.84C33.1669 34.3533 33.8536 34.11 34.7202 34.11C35.5802 34.11 36.2436 34.3467 36.7102 34.82C37.1836 35.2867 37.4202 35.93 37.4202 36.75V36.81H36.1202V36.71C36.1202 36.2967 36.0036 35.9567 35.7702 35.69C35.5436 35.4233 35.1936 35.29 34.7202 35.29C34.2536 35.29 33.8869 35.4333 33.6202 35.72C33.3536 36.0067 33.2202 36.3967 33.2202 36.89V38.61C33.2202 39.0967 33.3536 39.4867 33.6202 39.78C33.8869 40.0667 34.2536 40.21 34.7202 40.21C35.1936 40.21 35.5436 40.0767 35.7702 39.81C36.0036 39.5367 36.1202 39.1967 36.1202 38.79V38.61H37.4202V38.75C37.4202 39.57 37.1836 40.2167 36.7102 40.69C36.2436 41.1567 35.5802 41.39 34.7202 41.39ZM41.1958 41.39C40.6224 41.39 40.1291 41.2867 39.7158 41.08C39.3091 40.8667 38.9958 40.5667 38.7758 40.18C38.5624 39.7867 38.4558 39.3233 38.4558 38.79V34.25H39.7758V38.83C39.7758 39.2567 39.8958 39.5933 40.1358 39.84C40.3824 40.0867 40.7358 40.21 41.1958 40.21C41.6558 40.21 42.0058 40.0867 42.2458 39.84C42.4924 39.5933 42.6158 39.2567 42.6158 38.83V34.25H43.9358V38.79C43.9358 39.3233 43.8258 39.7867 43.6058 40.18C43.3924 40.5667 43.0791 40.8667 42.6658 41.08C42.2591 41.2867 41.7691 41.39 41.1958 41.39ZM45.2145 41.25V34.25H48.2545C48.6945 34.25 49.0779 34.3267 49.4045 34.48C49.7312 34.6333 49.9845 34.85 50.1645 35.13C50.3445 35.41 50.4345 35.74 50.4345 36.12V36.24C50.4345 36.66 50.3345 37 50.1345 37.26C49.9345 37.52 49.6879 37.71 49.3945 37.83V38.01C49.6612 38.0233 49.8679 38.1167 50.0145 38.29C50.1612 38.4567 50.2345 38.68 50.2345 38.96V41.25H48.9145V39.15C48.9145 38.99 48.8712 38.86 48.7845 38.76C48.7045 38.66 48.5679 38.61 48.3745 38.61H46.5345V41.25H45.2145ZM46.5345 37.41H48.1145C48.4279 37.41 48.6712 37.3267 48.8445 37.16C49.0245 36.9867 49.1145 36.76 49.1145 36.48V36.38C49.1145 36.1 49.0279 35.8767 48.8545 35.71C48.6812 35.5367 48.4345 35.45 48.1145 35.45H46.5345V37.41ZM51.5329 41.25V34.25H56.0329V35.45H52.8529V37.12H55.7529V38.32H52.8529V40.05H56.0929V41.25H51.5329Z" fill="black"/>
</svg>
