<svg width="46" height="46" viewBox="0 0 46 46" fill="none" xmlns="http://www.w3.org/2000/svg">
<path d="M35.165 2.5V17.5C35.165 18.1875 34.9202 18.776 34.4307 19.2656C33.9411 19.7552 33.3525 20 32.665 20H12.665C11.9775 20 11.389 19.7552 10.8994 19.2656C10.4098 18.776 10.165 18.1875 10.165 17.5V2.5C10.165 1.8125 10.4098 1.22396 10.8994 0.734375C11.389 0.244792 11.9775 0 12.665 0H32.665C33.3525 0 33.9411 0.244792 34.4307 0.734375C34.9202 1.22396 35.165 1.8125 35.165 2.5ZM12.665 5H32.665V2.5H12.665V5ZM12.665 10V17.5H32.665V10H12.665ZM12.665 17.5V2.5V17.5Z" fill="black"/>
<path d="M1.9775 35L0.197502 28H1.5575L3.0375 34.15H3.1775L4.6575 28H6.0175L4.2375 35H1.9775ZM6.85914 35V28H8.17914V35H6.85914ZM11.9259 35.14C11.3859 35.14 10.9092 35.0433 10.4959 34.85C10.0825 34.6567 9.75919 34.38 9.52586 34.02C9.29253 33.66 9.17586 33.2267 9.17586 32.72V32.44H10.4759V32.72C10.4759 33.14 10.6059 33.4567 10.8659 33.67C11.1259 33.8767 11.4792 33.98 11.9259 33.98C12.3792 33.98 12.7159 33.89 12.9359 33.71C13.1625 33.53 13.2759 33.3 13.2759 33.02C13.2759 32.8267 13.2192 32.67 13.1059 32.55C12.9992 32.43 12.8392 32.3333 12.6259 32.26C12.4192 32.18 12.1659 32.1067 11.8659 32.04L11.6359 31.99C11.1559 31.8833 10.7425 31.75 10.3959 31.59C10.0559 31.4233 9.79253 31.2067 9.60586 30.94C9.42586 30.6733 9.33586 30.3267 9.33586 29.9C9.33586 29.4733 9.43586 29.11 9.63586 28.81C9.84253 28.5033 10.1292 28.27 10.4959 28.11C10.8692 27.9433 11.3059 27.86 11.8059 27.86C12.3059 27.86 12.7492 27.9467 13.1359 28.12C13.5292 28.2867 13.8359 28.54 14.0559 28.88C14.2825 29.2133 14.3959 29.6333 14.3959 30.14V30.44H13.0959V30.14C13.0959 29.8733 13.0425 29.66 12.9359 29.5C12.8359 29.3333 12.6892 29.2133 12.4959 29.14C12.3025 29.06 12.0725 29.02 11.8059 29.02C11.4059 29.02 11.1092 29.0967 10.9159 29.25C10.7292 29.3967 10.6359 29.6 10.6359 29.86C10.6359 30.0333 10.6792 30.18 10.7659 30.3C10.8592 30.42 10.9959 30.52 11.1759 30.6C11.3559 30.68 11.5859 30.75 11.8659 30.81L12.0959 30.86C12.5959 30.9667 13.0292 31.1033 13.3959 31.27C13.7692 31.4367 14.0592 31.6567 14.2659 31.93C14.4725 32.2033 14.5759 32.5533 14.5759 32.98C14.5759 33.4067 14.4659 33.7833 14.2459 34.11C14.0325 34.43 13.7259 34.6833 13.3259 34.87C12.9325 35.05 12.4659 35.14 11.9259 35.14ZM15.0803 35L16.9203 28H19.2203L21.0603 35H19.7003L19.3203 33.46H16.8203L16.4403 35H15.0803ZM17.1303 32.24H19.0103L18.1603 28.83H17.9803L17.1303 32.24ZM23.5001 37L26.4401 28H27.7001L24.7601 37H23.5001ZM30.7361 35V28H33.1861L34.3961 34.1H34.5761L35.7861 28H38.2361V35H36.9561V28.97H36.7761L35.5761 35H33.3961L32.1961 28.97H32.0161V35H30.7361ZM42.2145 35.14C41.3478 35.14 40.6611 34.9 40.1545 34.42C39.6478 33.9333 39.3945 33.24 39.3945 32.34V30.66C39.3945 29.76 39.6478 29.07 40.1545 28.59C40.6611 28.1033 41.3478 27.86 42.2145 27.86C43.0745 27.86 43.7378 28.0967 44.2045 28.57C44.6778 29.0367 44.9145 29.68 44.9145 30.5V30.56H43.6145V30.46C43.6145 30.0467 43.4978 29.7067 43.2645 29.44C43.0378 29.1733 42.6878 29.04 42.2145 29.04C41.7478 29.04 41.3811 29.1833 41.1145 29.47C40.8478 29.7567 40.7145 30.1467 40.7145 30.64V32.36C40.7145 32.8467 40.8478 33.2367 41.1145 33.53C41.3811 33.8167 41.7478 33.96 42.2145 33.96C42.6878 33.96 43.0378 33.8267 43.2645 33.56C43.4978 33.2867 43.6145 32.9467 43.6145 32.54V32.36H44.9145V32.5C44.9145 33.32 44.6778 33.9667 44.2045 34.44C43.7378 34.9067 43.0745 35.14 42.2145 35.14Z" fill="black"/>
</svg>
