<svg width="29" height="29" viewBox="0 0 29 29" fill="none" xmlns="http://www.w3.org/2000/svg">
<path d="M12.47 21.17L22.6925 10.9475L20.6625 8.9175L12.47 17.11L8.3375 12.9775L6.3075 15.0075L12.47 21.17ZM14.5 29C12.4942 29 10.6092 28.6194 8.84501 27.8581C7.08084 27.0969 5.54625 26.0637 4.24125 24.7587C2.93625 23.4537 1.14187 20.155 1.14187 20.155C0.380625 18.3908 0 16.5058 0 14.5C0 12.4942 0.380625 10.6092 1.14187 8.845C1.90312 7.08083 2.93625 5.54625 4.24125 4.24125C5.54625 2.93625 7.08084 1.90312 8.84501 1.14187C10.6092 0.380625 12.4942 0 14.5 0C16.5058 0 18.3908 0.380625 20.155 1.14187C21.9192 1.90312 23.4538 2.93625 24.7588 4.24125C26.0638 5.54625 27.0969 7.08083 27.8581 8.845C28.6194 10.6092 29 12.4942 29 14.5C29 16.5058 28.6194 18.3908 27.8581 20.155C27.0969 21.9192 26.0638 23.4537 24.7588 24.7587C23.4538 26.0637 21.9192 27.0969 20.155 27.8581C18.3908 28.6194 16.5058 29 14.5 29Z" fill="#201C44"/>
</svg>
