<svg width="24" height="23" viewBox="0 0 24 23" fill="none" xmlns="http://www.w3.org/2000/svg">
<path d="M7.98 22.05L5.985 18.69L2.205 17.85L2.5725 13.965L0 11.025L2.5725 8.085L2.205 4.2L5.985 3.36L7.98 0L11.55 1.5225L15.12 0L17.115 3.36L20.895 4.2L20.5275 8.085L23.1 11.025L20.5275 13.965L20.895 17.85L17.115 18.69L15.12 22.05L11.55 20.5275L7.98 22.05ZM8.8725 19.3725L11.55 18.2175L14.28 19.3725L15.75 16.8525L18.6375 16.17L18.375 13.23L20.3175 11.025L18.375 8.7675L18.6375 5.8275L15.75 5.1975L14.2275 2.6775L11.55 3.8325L8.82 2.6775L7.35 5.1975L4.4625 5.8275L4.725 8.7675L2.7825 11.025L4.725 13.23L4.4625 16.2225L7.35 16.8525L8.8725 19.3725ZM10.4475 14.7525L16.38 8.82L14.91 7.2975L10.4475 11.76L8.19 9.555L6.72 11.025L10.4475 14.7525Z" fill="#4721DF"/>
</svg>
