<svg width="21" height="22" viewBox="0 0 21 22" fill="none" xmlns="http://www.w3.org/2000/svg">
<mask id="mask0_76_2484" style="mask-type:luminance" maskUnits="userSpaceOnUse" x="0" y="0" width="21" height="22">
<path d="M0 0H21V21.1548H0V0Z" fill="white"/>
</mask>
<g mask="url(#mask0_76_2484)">
<path fill-rule="evenodd" clip-rule="evenodd" d="M17.938 3.08265C15.9644 1.10288 13.3397 0.0107422 10.5427 0.0107422C4.77998 0.0107422 0.0897574 4.70876 0.0876075 10.4844C0.0876075 12.3303 0.568642 14.1333 1.48342 15.7207L0 21.1483L5.54265 19.6915C7.06987 20.5265 8.78897 20.9656 10.5387 20.9667H10.5427C16.3044 20.9667 20.9957 16.2673 20.9968 10.4927C20.9968 7.69387 19.9119 5.06322 17.937 3.08265H17.938ZM10.5427 19.1981H10.5395C8.98111 19.1981 7.45067 18.7778 6.1164 17.9848L5.79929 17.7956L2.50998 18.6599L3.3874 15.4469L3.18074 15.1177C2.31058 13.7318 1.85158 12.1296 1.85266 10.4844C1.85481 5.68507 5.75334 1.77928 10.546 1.77928C12.867 1.77928 15.0483 2.68653 16.6895 4.33253C18.3304 5.97773 19.2328 8.16523 19.2317 10.4917C19.2296 15.2923 15.331 19.1981 10.5417 19.1981H10.5427ZM15.3093 12.6784C15.0483 12.5478 13.7643 11.9143 13.5243 11.8275C13.2844 11.7397 13.111 11.6969 12.9369 11.9581C12.7627 12.2204 12.2621 12.81 12.1097 12.9844C11.9573 13.1591 11.805 13.1812 11.5432 13.0492C11.2823 12.9186 10.4406 12.6418 9.44226 11.7501C8.66589 11.0563 8.14132 10.199 7.98894 9.93672C7.83657 9.67444 7.97336 9.53335 8.10369 9.40275C8.22059 9.28558 8.36437 9.09639 8.49605 8.94402C8.62638 8.79138 8.67019 8.68147 8.75672 8.50706C8.84433 8.33238 8.80052 8.17974 8.73495 8.04806C8.66911 7.91745 8.1475 6.62887 7.92955 6.10511C7.71779 5.59505 7.50173 5.66411 7.3421 5.65578C7.18973 5.64853 7.01559 5.64638 6.84145 5.64638C6.66731 5.64638 6.3846 5.71114 6.14462 5.97343C5.90464 6.23571 5.23065 6.86912 5.23065 8.1569C5.23065 9.4444 6.16639 10.6895 6.2978 10.8649C6.4284 11.0393 8.14024 13.6826 10.7607 14.8167C11.3836 15.0865 11.8708 15.2475 12.2505 15.3687C12.8764 15.5683 13.4461 15.5401 13.8957 15.4721C14.3975 15.3969 15.4407 14.8387 15.6586 14.2273C15.8768 13.6157 15.8768 13.0922 15.811 12.9826C15.7452 12.8727 15.571 12.8079 15.3104 12.6762L15.3093 12.6784Z" fill="black"/>
</g>
</svg>
